<svg xmlns="http://www.w3.org/2000/svg" viewBox="0 0 1600 900" role="img" aria-labelledby="title desc">
  <title id="title">vreaumagnet.ro thumbnail</title>
  <desc id="desc">Gradient thumbnail for the vreaumagnet.ro ecommerce project.</desc>
  <defs>
    <linearGradient id="bg" x1="0%" y1="0%" x2="100%" y2="100%">
      <stop offset="0%" stop-color="#0b132b" />
      <stop offset="55%" stop-color="#1c2541" />
      <stop offset="100%" stop-color="#3a506b" />
    </linearGradient>
    <linearGradient id="accent" x1="0%" y1="0%" x2="100%" y2="0%">
      <stop offset="0%" stop-color="#f59e0b" />
      <stop offset="100%" stop-color="#ef4444" />
    </linearGradient>
  </defs>
  <rect width="1600" height="900" fill="url(#bg)" />
  <circle cx="1310" cy="180" r="210" fill="#f59e0b" fill-opacity="0.14" />
  <circle cx="240" cy="760" r="260" fill="#38bdf8" fill-opacity="0.12" />
  <rect x="120" y="120" width="1360" height="660" rx="40" fill="#ffffff" fill-opacity="0.05" stroke="#ffffff" stroke-opacity="0.12" />
  <rect x="200" y="220" width="420" height="340" rx="28" fill="#ffffff" fill-opacity="0.08" />
  <rect x="250" y="280" width="320" height="28" rx="14" fill="url(#accent)" />
  <rect x="250" y="340" width="260" height="22" rx="11" fill="#ffffff" fill-opacity="0.9" />
  <rect x="250" y="384" width="300" height="18" rx="9" fill="#ffffff" fill-opacity="0.4" />
  <rect x="250" y="420" width="280" height="18" rx="9" fill="#ffffff" fill-opacity="0.25" />
  <rect x="250" y="470" width="170" height="46" rx="23" fill="#f59e0b" />
  <rect x="690" y="240" width="660" height="160" rx="28" fill="#ffffff" fill-opacity="0.06" />
  <rect x="690" y="440" width="310" height="220" rx="28" fill="#ffffff" fill-opacity="0.06" />
  <rect x="1040" y="440" width="310" height="220" rx="28" fill="#ffffff" fill-opacity="0.06" />
  <text x="690" y="300" fill="#f8fafc" font-family="Arial, Helvetica, sans-serif" font-size="74" font-weight="700">vreaumagnet.ro</text>
  <text x="690" y="360" fill="#cbd5e1" font-family="Arial, Helvetica, sans-serif" font-size="30">Shopify store optimized for conversions and campaigns</text>
  <text x="140" y="840" fill="#94a3b8" font-family="Arial, Helvetica, sans-serif" font-size="26" letter-spacing="6">VOOST VISION</text>
</svg>
